<mxfile host="app.diagrams.net" modified="2021-07-05T10:46:38.745Z" agent="5.0 (Windows NT 10.0; Win64; x64) AppleWebKit/537.36 (KHTML, like Gecko) Chrome/91.0.4472.124 Safari/537.36 Edg/91.0.864.64" etag="v3h9w4xCKwHDpmP05Iy_" version="14.8.3" type="github">
  <diagram name="Page-1" id="7a6c530e-6e37-e111-ec74-82921da8cc10">
    <mxGraphModel dx="1081" dy="502" grid="1" gridSize="10" guides="1" tooltips="1" connect="1" arrows="1" fold="1" page="1" pageScale="1.5" pageWidth="1169" pageHeight="826" background="#184380" math="0" shadow="0">
      <root>
        <mxCell id="0" style=";html=1;" />
        <mxCell id="1" style=";html=1;" parent="0" />
        <mxCell id="KJWr5GMgWc-rE9d0oI-1-12" value="&lt;br&gt;&lt;br&gt;&lt;br&gt;&lt;br&gt;&amp;nbsp; &amp;nbsp; &amp;nbsp; &amp;nbsp; &amp;nbsp; &amp;nbsp; &amp;nbsp; &amp;nbsp; Azure Function" style="whiteSpace=wrap;html=1;shadow=1;" vertex="1" parent="1">
          <mxGeometry x="380" y="400" width="580" height="320" as="geometry" />
        </mxCell>
        <mxCell id="KJWr5GMgWc-rE9d0oI-1-10" style="edgeStyle=orthogonalEdgeStyle;rounded=0;orthogonalLoop=1;jettySize=auto;html=1;" edge="1" parent="1" source="KJWr5GMgWc-rE9d0oI-1-1">
          <mxGeometry relative="1" as="geometry">
            <mxPoint x="860" y="458" as="targetPoint" />
            <Array as="points">
              <mxPoint x="800" y="545" />
              <mxPoint x="800" y="458" />
            </Array>
          </mxGeometry>
        </mxCell>
        <mxCell id="KJWr5GMgWc-rE9d0oI-1-11" style="edgeStyle=orthogonalEdgeStyle;rounded=0;orthogonalLoop=1;jettySize=auto;html=1;" edge="1" parent="1" source="KJWr5GMgWc-rE9d0oI-1-1" target="KJWr5GMgWc-rE9d0oI-1-3">
          <mxGeometry relative="1" as="geometry" />
        </mxCell>
        <mxCell id="KJWr5GMgWc-rE9d0oI-1-1" value="" style="aspect=fixed;html=1;points=[];align=center;image;fontSize=12;image=img/lib/azure2/compute/Function_Apps.svg;" vertex="1" parent="1">
          <mxGeometry x="650" y="506.18" width="88" height="77.65" as="geometry" />
        </mxCell>
        <mxCell id="KJWr5GMgWc-rE9d0oI-1-2" value="&lt;br&gt;Blog storage" style="verticalLabelPosition=bottom;html=1;verticalAlign=top;align=center;strokeColor=none;fillColor=#00BEF2;shape=mxgraph.azure.storage_blob;" vertex="1" parent="1">
          <mxGeometry x="860" y="430" width="50" height="45" as="geometry" />
        </mxCell>
        <mxCell id="KJWr5GMgWc-rE9d0oI-1-3" value="Dynamo DB" style="outlineConnect=0;dashed=0;verticalLabelPosition=bottom;verticalAlign=top;align=center;html=1;shape=mxgraph.aws3.dynamo_db;fillColor=#2E73B8;gradientColor=none;" vertex="1" parent="1">
          <mxGeometry x="860" y="570" width="72" height="81" as="geometry" />
        </mxCell>
        <mxCell id="KJWr5GMgWc-rE9d0oI-1-14" value="" style="edgeStyle=orthogonalEdgeStyle;rounded=0;orthogonalLoop=1;jettySize=auto;html=1;" edge="1" parent="1" source="KJWr5GMgWc-rE9d0oI-1-4" target="KJWr5GMgWc-rE9d0oI-1-1">
          <mxGeometry relative="1" as="geometry" />
        </mxCell>
        <mxCell id="KJWr5GMgWc-rE9d0oI-1-4" value="" style="shape=image;verticalLabelPosition=bottom;labelBackgroundColor=#ffffff;verticalAlign=top;aspect=fixed;imageAspect=0;image=data:image/svg+xml,PHN2ZyB4bWxuczpkYz0iaHR0cDovL3B1cmwub3JnL2RjL2VsZW1lbnRzLzEuMS8iIHhtbG5zOmNjPSJodHRwOi8vY3JlYXRpdmVjb21tb25zLm9yZy9ucyMiIHhtbG5zOnJkZj0iaHR0cDovL3d3dy53My5vcmcvMTk5OS8wMi8yMi1yZGYtc3ludGF4LW5zIyIgeG1sbnM6c3ZnPSJodHRwOi8vd3d3LnczLm9yZy8yMDAwL3N2ZyIgeG1sbnM9Imh0dHA6Ly93d3cudzMub3JnLzIwMDAvc3ZnIiB4bWxuczpzb2RpcG9kaT0iaHR0cDovL3NvZGlwb2RpLnNvdXJjZWZvcmdlLm5ldC9EVEQvc29kaXBvZGktMC5kdGQiIHhtbG5zOmlua3NjYXBlPSJodHRwOi8vd3d3Lmlua3NjYXBlLm9yZy9uYW1lc3BhY2VzL2lua3NjYXBlIiB2ZXJzaW9uPSIxLjEiIGlkPSJzdmc4NTkwMyIgaW5rc2NhcGU6dmVyc2lvbj0iMC45Mi4zICgyNDA1NTQ2LCAyMDE4LTAzLTExKSIgc29kaXBvZGk6ZG9jbmFtZT0icmVzdC5zdmciIHg9IjBweCIgeT0iMHB4IiB2aWV3Qm94PSIwIDAgMjkuNzIwMDAxIDI5LjcyMDAwMyIgeG1sOnNwYWNlPSJwcmVzZXJ2ZSIgd2lkdGg9IjI5LjcxOTk5OSIgaGVpZ2h0PSIyOS43MjAwMDEiPjxtZXRhZGF0YSBpZD0ibWV0YWRhdGE4ODIwIj48cmRmOlJERj48Y2M6V29yayByZGY6YWJvdXQ9IiI+PGRjOmZvcm1hdD5pbWFnZS9zdmcreG1sPC9kYzpmb3JtYXQ+PGRjOnR5cGUgcmRmOnJlc291cmNlPSJodHRwOi8vcHVybC5vcmcvZGMvZGNtaXR5cGUvU3RpbGxJbWFnZSIvPjxkYzp0aXRsZS8+PC9jYzpXb3JrPjwvcmRmOlJERj48L21ldGFkYXRhPjxkZWZzIGlkPSJkZWZzODgxOCI+JiN4YTsJJiN4YTsJJiN4YTsmI3hhOwkJJiN4YTsJCSYjeGE7CQkmI3hhOwkJJiN4YTsJJiN4YTsJCQkmI3hhOwkJCSYjeGE7CQkJJiN4YTsJCQkmI3hhOwkJCSYjeGE7CQkmI3hhOwkJCSYjeGE7CQkJJiN4YTsJCQkmI3hhOwkJJiN4YTsJCQkmI3hhOwkJCSYjeGE7CQkJJiN4YTsJCSYjeGE7CQkJCSYjeGE7CQkJJiN4YTsJCQkJJiN4YTsJCQkmI3hhOwkJCQkmI3hhOwkJCQkmI3hhOwkJCQkmI3hhOwkJCSYjeGE7CQkJCSYjeGE7CQkJCSYjeGE7CQkJCSYjeGE7CQkJJiN4YTsJCQkJJiN4YTsJCQkJJiN4YTsJCQkJJiN4YTsJCQkmI3hhOwkJCQkmI3hhOwkJCQkmI3hhOwkJCQkmI3hhOwkJCSYjeGE7CQkJCQkmI3hhOwkJCQkmI3hhOwkJCQkJJiN4YTsJCQkJJiN4YTsJCQkJCSYjeGE7CQkJCSYjeGE7CQkJCQkmI3hhOwkJCQkmI3hhOwkJCQkJJiN4YTsJCQkJJiN4YTsJCQkJCSYjeGE7CQkJCSYjeGE7CQkJCQkJJiN4YTsJCQkJCSYjeGE7CQkJCQkJJiN4YTsJCQkJCSYjeGE7CQkJCQkJJiN4YTsJCQkJCTwvZGVmcz4mI3hhOzxmaWx0ZXIgaWQ9ImZpbHRlcl8yIj4mI3hhOwk8ZmVHYXVzc2lhbkJsdXIgaWQ9ImZlR2F1c3NpYW5CbHVyODU4NDEiIHN0ZERldmlhdGlvbj0iMiIvPiYjeGE7PC9maWx0ZXI+JiN4YTs8c29kaXBvZGk6bmFtZWR2aWV3IGJvcmRlcmNvbG9yPSIjNjY2NjY2IiBib3JkZXJvcGFjaXR5PSIxIiBmaXQtbWFyZ2luLWJvdHRvbT0iMCIgZml0LW1hcmdpbi1sZWZ0PSIwIiBmaXQtbWFyZ2luLXJpZ2h0PSIwIiBmaXQtbWFyZ2luLXRvcD0iMCIgZ3JpZHRvbGVyYW5jZT0iMTAiIGd1aWRldG9sZXJhbmNlPSIxMCIgaWQ9Im5hbWVkdmlldzg1OTA1IiBpbmtzY2FwZTpjdXJyZW50LWxheWVyPSJzdmc4NTkwMyIgaW5rc2NhcGU6Y3g9IjEzLjk2NzQ5NCIgaW5rc2NhcGU6Y3k9IjguODczMTQ4IiBpbmtzY2FwZTpwYWdlb3BhY2l0eT0iMCIgaW5rc2NhcGU6cGFnZXNoYWRvdz0iMiIgaW5rc2NhcGU6d2luZG93LWhlaWdodD0iMTAxNyIgaW5rc2NhcGU6d2luZG93LW1heGltaXplZD0iMSIgaW5rc2NhcGU6d2luZG93LXdpZHRoPSIxOTIwIiBpbmtzY2FwZTp3aW5kb3cteD0iLTgiIGlua3NjYXBlOndpbmRvdy15PSItOCIgaW5rc2NhcGU6em9vbT0iMTMuNzQwOTg4IiBvYmplY3R0b2xlcmFuY2U9IjEwIiBwYWdlY29sb3I9IiNmZmZmZmYiIHNob3dncmlkPSJmYWxzZSI+JiN4YTsJPC9zb2RpcG9kaTpuYW1lZHZpZXc+JiN4YTs8Y2lyY2xlIHI9IjE0Ljg2IiBjeT0iMTQuODYiIGN4PSIxNC44NiIgc3R5bGU9ImZpbGw6IzEwN2MxMCIgaWQ9ImVsbGlwc2U4NTg1NCIvPjxwYXRoIGQ9Ik0gNC41NzAwMDAxLDQuMTYwMDAwOSBDIDEuNzUwMDAwMSw2Ljg3MDAwMDkgOS4wNjM3MjA5ZS04LDEwLjY2MDAwMSA5LjA2MzcyMDllLTgsMTQuODYwMDAxIGMgMCw4LjIxIDYuNjUwMDAwMDA5MzYyNzkxLDE0Ljg2IDE0Ljg1OTk5OTkwOTM2Mjc4OSwxNC44NiA0LjIsMCA3Ljk5LC0xLjc0IDEwLjcsLTQuNTcgeiIgc3R5bGU9ImZpbGw6IzAwNGIxYyIgaW5rc2NhcGU6Y29ubmVjdG9yLWN1cnZhdHVyZT0iMCIgaWQ9InBhdGg4NTg2MiIvPjxwYXRoIGlkPSJwYXRoODU4NzIiIGlua3NjYXBlOmNvbm5lY3Rvci1jdXJ2YXR1cmU9IjAiIHN0eWxlPSJmaWxsOiNmZmZmZmYiIGQ9Im0gOS4wNDA4MjAxLDE4Ljc1OTQ5IGggLTEuMDkgbCAtMS4zMSwtMi4xOSBjIC0wLjEyLC0wLjIgLTAuMjQsLTAuMzcgLTAuMzUsLTAuNTIgLTAuMTEsLTAuMTQgLTAuMjMsLTAuMjYgLTAuMzQsLTAuMzUgLTAuMTIsLTAuMDkgLTAuMjUsLTAuMTUgLTAuMzgsLTAuMiAtMC4xNCwtMC4wNCAtMC4yOSwtMC4wNiAtMC40NiwtMC4wNiBoIC0wLjc2IHYgMy4zMiBoIC0wLjkxIHYgLTcuOCBoIDIuMzMgYyAwLjM0LDAgMC42NiwwLjA0IDAuOTQsMC4xMiAwLjI5LDAuMDkgMC41NCwwLjIyIDAuNzYsMC4zOSAwLjIxLDAuMTggMC4zNywwLjM5IDAuNDksMC42NSAwLjEyLDAuMjYgMC4xOCwwLjU3IDAuMTgsMC45MiAwLDAuMjcgLTAuMDQsMC41MiAtMC4xMiwwLjc0IC0wLjA4LDAuMjMgLTAuMiwwLjQzIC0wLjM1LDAuNjEgLTAuMTUsMC4xOCAtMC4zMywwLjMzIC0wLjU0LDAuNDYgLTAuMjEsMC4xMiAtMC40NSwwLjIyIC0wLjcyLDAuMjkgdiAwLjAyIGMgMC4xMywwLjA2IDAuMjUsMC4xMiAwLjM0LDAuMiAwLjEsMC4wNyAwLjE5LDAuMTYgMC4yOCwwLjI2IDAuMDgsMC4xIDAuMTcsMC4yMiAwLjI2LDAuMzUgMC4wOCwwLjEzIDAuMTgsMC4yOCAwLjI4LDAuNDUgeiBtIC00LjY5LC02Ljk4IHYgMi44MyBoIDEuMjUgYyAwLjIyLDAgMC40NCwtMC4wMyAwLjYzLC0wLjEgMC4xOSwtMC4wNyAwLjM2LC0wLjE3IDAuNSwtMC4zIDAuMTQsLTAuMTIgMC4yNiwtMC4yOCAwLjM0LC0wLjQ3IDAuMDgsLTAuMTkgMC4xMiwtMC40IDAuMTIsLTAuNjMgMCwtMC40MiAtMC4xNCwtMC43NCAtMC40MSwtMC45NyAtMC4yNywtMC4yNCAtMC42NiwtMC4zNiAtMS4xNywtMC4zNiB6Ii8+PHBhdGggaWQ9InBhdGg4NTg4MCIgaW5rc2NhcGU6Y29ubmVjdG9yLWN1cnZhdHVyZT0iMCIgc3R5bGU9ImZpbGw6I2ZmZmZmZiIgZD0ibSAxNC4yNDg4MSwxOC43NTk0OSBoIC00LjE0IHYgLTcuOCBoIDMuOTYgdiAwLjgyIGggLTMuMDUgdiAyLjYgaCAyLjgyIHYgMC44MiBoIC0yLjgyIHYgMi43MyBoIDMuMjMgeiIvPjxwYXRoIGlkPSJwYXRoODU4ODgiIGlua3NjYXBlOmNvbm5lY3Rvci1jdXJ2YXR1cmU9IjAiIHN0eWxlPSJmaWxsOiNmZmZmZmYiIGQ9Im0gMTUuMzgzMDIsMTguNDQxNDAxIHYgLTEuMDcgYyAwLjEyLDAuMTEgMC4yNywwLjIgMC40NCwwLjI5IDAuMTgsMC4wOSAwLjM2LDAuMTYgMC41NSwwLjIyIDAuMTksMC4wNiAwLjM4LDAuMTEgMC41NywwLjE0IDAuMTksMC4wMyAwLjM3LDAuMDUgMC41NCwwLjA1IDAuNTYsMCAwLjk4LC0wLjExIDEuMjYsLTAuMzEgMC4yNywtMC4yMSAwLjQxLC0wLjUxIDAuNDEsLTAuOSAwLC0wLjIyIC0wLjA0LC0wLjQgLTAuMTQsLTAuNTUgLTAuMDksLTAuMTYgLTAuMjIsLTAuMyAtMC4zOCwtMC40MyAtMC4xNiwtMC4xMyAtMC4zNiwtMC4yNSAtMC41OCwtMC4zNyAtMC4yMiwtMC4xMiAtMC40NiwtMC4yNCAtMC43MiwtMC4zNyAtMC4yNywtMC4xNCAtMC41MywtMC4yOCAtMC43NiwtMC40MiAtMC4yNCwtMC4xNSAtMC40NCwtMC4zIC0wLjYyLC0wLjQ3IC0wLjE3LC0wLjE3IC0wLjMxLC0wLjM3IC0wLjQxLC0wLjU4IC0wLjEsLTAuMjIgLTAuMTUsLTAuNDcgLTAuMTUsLTAuNzYgMCwtMC4zNiAwLjA4LC0wLjY3IDAuMjMsLTAuOTMgMC4xNiwtMC4yNiAwLjM3LC0wLjQ4IDAuNjIsLTAuNjUgMC4yNSwtMC4xNyAwLjU0LC0wLjMgMC44NywtMC4zOCAwLjMyLC0wLjA4IDAuNjUsLTAuMTMgMC45OSwtMC4xMyAwLjc3LDAgMS4zMywwLjEgMS42OCwwLjI4IHYgMS4wMyBjIC0wLjQ2LC0wLjMyIC0xLjA1LC0wLjQ4IC0xLjc3LC0wLjQ4IC0wLjIsMCAtMC40LDAuMDIgLTAuNiwwLjA2IC0wLjIsMC4wNSAtMC4zOCwwLjExIC0wLjUzLDAuMjEgLTAuMTYsMC4wOSAtMC4yOSwwLjIxIC0wLjM4LDAuMzYgLTAuMSwwLjE1IC0wLjE1LDAuMzMgLTAuMTUsMC41NSAwLDAuMiAwLjA0LDAuMzcgMC4xMSwwLjUxIDAuMDcsMC4xNSAwLjE4LDAuMjggMC4zMywwLjQgMC4xNCwwLjEyIDAuMzIsMC4yNCAwLjUzLDAuMzUgMC4yMSwwLjExIDAuNDUsMC4yNCAwLjcyLDAuMzcgMC4yOCwwLjE0IDAuNTUsMC4yOCAwLjgsMC40NCAwLjI1LDAuMTUgMC40NywwLjMyIDAuNjUsMC41IDAuMTksMC4xOSAwLjM0LDAuMzkgMC40NSwwLjYyIDAuMTEsMC4yMiAwLjE3LDAuNDggMC4xNywwLjc3IDAsMC4zOSAtMC4wOCwwLjcxIC0wLjIzLDAuOTggLTAuMTUsMC4yNiAtMC4zNSwwLjQ4IC0wLjYxLDAuNjUgLTAuMjUsMC4xNiAtMC41NSwwLjI5IC0wLjg4LDAuMzYgLTAuMzMsMC4wNyAtMC42OSwwLjExIC0xLjA2LDAuMTEgLTAuMTIsMCAtMC4yNywtMC4wMSAtMC40NSwtMC4wMyAtMC4xOSwtMC4wMiAtMC4zNywtMC4wNSAtMC41NiwtMC4wOSAtMC4xOSwtMC4wMyAtMC4zNywtMC4wOCAtMC41NCwtMC4xNCAtMC4xNiwtMC4wNSAtMC4zLC0wLjEyIC0wLjQsLTAuMTkgeiIvPjxwYXRoIGlkPSJwYXRoODU4OTYiIGlua3NjYXBlOmNvbm5lY3Rvci1jdXJ2YXR1cmU9IjAiIHN0eWxlPSJmaWxsOiNmZmZmZmYiIGQ9Im0gMjYuMjg5NzIsMTEuNzc5NDkgaCAtMi4yNiB2IDYuOTggaCAtMC45MSB2IC02Ljk4IGggLTIuMjUgdiAtMC44MiBoIDUuNDIgeiIvPiYjeGE7PC9zdmc+;" vertex="1" parent="1">
          <mxGeometry x="570" y="530" width="30" height="30" as="geometry" />
        </mxCell>
        <mxCell id="KJWr5GMgWc-rE9d0oI-1-8" value="" style="edgeStyle=orthogonalEdgeStyle;rounded=0;orthogonalLoop=1;jettySize=auto;html=1;entryX=0;entryY=0.5;entryDx=0;entryDy=0;" edge="1" parent="1" source="KJWr5GMgWc-rE9d0oI-1-6" target="KJWr5GMgWc-rE9d0oI-1-4">
          <mxGeometry relative="1" as="geometry" />
        </mxCell>
        <mxCell id="KJWr5GMgWc-rE9d0oI-1-6" value="mobile" style="html=1;verticalLabelPosition=bottom;labelBackgroundColor=#ffffff;verticalAlign=top;shadow=0;dashed=0;strokeWidth=1;shape=mxgraph.ios7.misc.iphone;strokeColor=#c0c0c0;" vertex="1" parent="1">
          <mxGeometry x="400" y="430" width="40" height="90" as="geometry" />
        </mxCell>
        <mxCell id="KJWr5GMgWc-rE9d0oI-1-9" style="edgeStyle=orthogonalEdgeStyle;rounded=0;orthogonalLoop=1;jettySize=auto;html=1;entryX=0;entryY=0.5;entryDx=0;entryDy=0;" edge="1" parent="1" source="KJWr5GMgWc-rE9d0oI-1-7" target="KJWr5GMgWc-rE9d0oI-1-4">
          <mxGeometry relative="1" as="geometry">
            <Array as="points">
              <mxPoint x="500" y="625" />
              <mxPoint x="500" y="545" />
            </Array>
          </mxGeometry>
        </mxCell>
        <mxCell id="KJWr5GMgWc-rE9d0oI-1-7" value="UI" style="aspect=fixed;html=1;points=[];align=center;image;fontSize=12;image=img/lib/azure2/general/Browser.svg;" vertex="1" parent="1">
          <mxGeometry x="400" y="599" width="65" height="52" as="geometry" />
        </mxCell>
        <mxCell id="KJWr5GMgWc-rE9d0oI-1-13" style="edgeStyle=orthogonalEdgeStyle;rounded=0;orthogonalLoop=1;jettySize=auto;html=1;entryX=0;entryY=0.436;entryDx=0;entryDy=0;entryPerimeter=0;" edge="1" parent="1">
          <mxGeometry relative="1" as="geometry">
            <mxPoint x="600" y="544" as="sourcePoint" />
            <mxPoint x="652" y="544.0354" as="targetPoint" />
          </mxGeometry>
        </mxCell>
      </root>
    </mxGraphModel>
  </diagram>
</mxfile>
